<?xml version="1.0" standalone="no"?><!DOCTYPE svg PUBLIC "-//W3C//DTD SVG 1.1//EN" "http://www.w3.org/Graphics/SVG/1.1/DTD/svg11.dtd"><svg class="icon" width="200px" height="200.00px" viewBox="0 0 1024 1024" version="1.1" xmlns="http://www.w3.org/2000/svg"><path fill="#8a8a8a" d="M833.536 718.592H357.632a30.08 30.08 0 0 1-27.904-26.368l-49.792-351.36-28.288-162.816a86.016 86.016 0 0 0-84.096-74.88h-37.248a27.904 27.904 0 0 0 0 55.808h37.248a31.104 31.104 0 0 1 28.928 27.136l28.288 163.456 49.664 349.952a85.376 85.376 0 0 0 83.2 74.752h475.904a27.904 27.904 0 1 0 0-55.68zM365.184 806.4a57.216 57.216 0 1 0 0 114.304 57.216 57.216 0 1 0 0-114.304z"  /><path fill="#8a8a8a" d="M899.584 216.832a74.624 74.624 0 0 0-56.832-25.6H335.36a27.904 27.904 0 0 0 0 55.68h507.392a19.584 19.584 0 0 1 15.104 6.912 38.4 38.4 0 0 1 7.808 28.544L819.2 546.304a30.976 30.976 0 0 1-29.952 25.6L392.192 601.6a27.52 27.52 0 0 0-19.072 9.472 27.904 27.904 0 0 0 21.12 46.08h2.56L791.68 627.2a84.608 84.608 0 0 0 82.944-73.216l46.208-264.192a93.312 93.312 0 0 0-21.248-72.96zM775.424 806.4a57.216 57.216 0 1 0 0 114.304 57.216 57.216 0 1 0 0-114.304z"  /></svg>